<svg width="278" height="278" viewBox="0 0 278 278" fill="none" xmlns="http://www.w3.org/2000/svg">
<g clip-path="url(#clip0_4044_12)">
<g filter="url(#filter0_d_4044_12)">
<path d="M216.943 179.233C205.973 194.3 188.203 204.113 168.182 204.113H140.09C130.385 204.113 122.121 197.951 118.992 189.328C115.129 188.176 111.341 186.68 107.645 184.844C99.8168 180.954 92.709 175.685 86.4521 169.158C45.8664 178.074 15.4907 214.238 15.4907 257.502V263.157C15.4907 270.93 21.7928 277.232 29.5665 277.232H247.954C255.727 277.232 262.029 270.93 262.029 263.157V257.502C262.029 224.08 243.901 194.894 216.943 179.233Z" fill="url(#paint0_linear_4044_12)"/>
</g>
<g filter="url(#filter1_d_4044_12)">
<path d="M71.4917 140.145C77.5413 140.145 82.8069 136.792 85.5349 131.844C85.6066 132.04 85.6795 132.235 85.753 132.429C85.7747 132.488 85.7964 132.546 85.8181 132.605C92.2178 149.45 104.67 163.572 121.09 169.742C125.061 163.432 132.083 159.235 140.09 159.235H168.183C170.985 159.235 173.593 158.445 175.879 157.166C179.719 155.019 183.172 149.572 184.955 146.685C187.808 142.065 190.019 137.171 191.98 131.836C193.081 133.836 194.596 135.577 196.411 136.941V143.829C196.411 159.394 183.748 172.058 168.182 172.058H140.09C134.779 172.058 130.473 176.364 130.473 181.675C130.473 186.986 134.779 191.291 140.09 191.291H168.182C194.353 191.291 215.644 170 215.644 143.829V136.941C219.537 134.016 222.055 129.361 222.055 124.118V95.1213V84.0019C222.055 78.6507 219.431 73.9161 215.401 71.0049C212.276 31.4574 179.097 0.232666 138.76 0.232666C98.4223 0.232666 65.2432 31.4574 62.1181 71.0042C58.0885 73.9155 55.4641 78.6507 55.4641 84.0013V124.117C55.4641 132.994 62.6755 140.145 71.4917 140.145ZM138.76 19.4661C168.62 19.4661 193.249 42.2857 196.128 71.402C194.238 72.8886 192.69 74.7886 191.624 76.9689C182.549 53.2948 162.293 36.8122 138.759 36.8122C114.717 36.8122 94.7861 53.8612 85.9302 76.8743C85.9181 76.9056 85.9067 76.9375 85.8947 76.9695C84.828 74.7892 83.2799 72.8892 81.3901 71.4026C84.2706 42.2857 108.899 19.4661 138.76 19.4661Z" fill="url(#paint1_linear_4044_12)"/>
</g>
</g>
<defs>
<filter id="filter0_d_4044_12" x="-6.79811" y="146.869" width="301.423" height="162.959" filterUnits="userSpaceOnUse" color-interpolation-filters="sRGB">
<feFlood flood-opacity="0" result="BackgroundImageFix"/>
<feColorMatrix in="SourceAlpha" type="matrix" values="0 0 0 0 0 0 0 0 0 0 0 0 0 0 0 0 0 0 127 0" result="hardAlpha"/>
<feOffset dx="5.15349" dy="5.15349"/>
<feGaussianBlur stdDeviation="13.7212"/>
<feComposite in2="hardAlpha" operator="out"/>
<feColorMatrix type="matrix" values="0 0 0 0 0.308924 0 0 0 0 0.404162 0 0 0 0 0.904167 0 0 0 0.38 0"/>
<feBlend mode="normal" in2="BackgroundImageFix" result="effect1_dropShadow_4044_12"/>
<feBlend mode="normal" in="SourceGraphic" in2="effect1_dropShadow_4044_12" result="shape"/>
</filter>
<filter id="filter1_d_4044_12" x="33.1753" y="-22.0562" width="221.476" height="245.943" filterUnits="userSpaceOnUse" color-interpolation-filters="sRGB">
<feFlood flood-opacity="0" result="BackgroundImageFix"/>
<feColorMatrix in="SourceAlpha" type="matrix" values="0 0 0 0 0 0 0 0 0 0 0 0 0 0 0 0 0 0 127 0" result="hardAlpha"/>
<feOffset dx="5.15349" dy="5.15349"/>
<feGaussianBlur stdDeviation="13.7212"/>
<feComposite in2="hardAlpha" operator="out"/>
<feColorMatrix type="matrix" values="0 0 0 0 0.308924 0 0 0 0 0.404162 0 0 0 0 0.904167 0 0 0 0.38 0"/>
<feBlend mode="normal" in2="BackgroundImageFix" result="effect1_dropShadow_4044_12"/>
<feBlend mode="normal" in="SourceGraphic" in2="effect1_dropShadow_4044_12" result="shape"/>
</filter>
<linearGradient id="paint0_linear_4044_12" x1="138.76" y1="169.158" x2="138.76" y2="277.232" gradientUnits="userSpaceOnUse">
<stop stop-color="#F0F3FF"/>
<stop offset="1" stop-color="#909DE3"/>
</linearGradient>
<linearGradient id="paint1_linear_4044_12" x1="138.76" y1="0.232666" x2="138.76" y2="191.291" gradientUnits="userSpaceOnUse">
<stop stop-color="#F0F3FF"/>
<stop offset="1" stop-color="#909DE3"/>
</linearGradient>
<clipPath id="clip0_4044_12">
<rect width="277" height="277" fill="white" transform="translate(0.260498 0.232666)"/>
</clipPath>
</defs>
</svg>
