<svg width="59" height="59" viewBox="0 0 59 59" fill="none" xmlns="http://www.w3.org/2000/svg">
<path d="M21.062 40.132C21.0895 40.0858 21.1177 40.0396 21.1466 39.9937C23.2513 36.6479 24.4697 32.6913 24.4697 28.431C24.4697 24.9983 27.2523 22.2156 30.6851 22.2156C34.1178 22.2156 36.9004 24.9983 36.9004 28.431C36.9004 30.0114 36.7928 31.5675 36.5845 33.0926M33.2944 43.7265C34.245 41.8293 35.0242 39.8313 35.6121 37.7541M41.5773 39.5128C42.5795 35.9913 43.1161 32.2738 43.1161 28.4308C43.1161 21.5655 37.5507 16 30.6853 16C28.4211 16 26.2983 16.6053 24.4699 17.663M16.7007 35.212C17.6962 33.1628 18.2545 30.8621 18.2545 28.4308C18.2545 26.1666 18.8599 24.0438 19.9176 22.2154M30.6851 28.4311C30.6851 33.8964 29.1177 38.9955 26.4077 43.3033" stroke="white" stroke-width="3.5" stroke-linecap="round" stroke-linejoin="round"/>
</svg>
