<svg width="59" height="59" viewBox="0 0 59 59" fill="none" xmlns="http://www.w3.org/2000/svg">
<path fill-rule="evenodd" clip-rule="evenodd" d="M45.75 13.25C45.0103 23.323 42.3853 30.6147 37.875 35.125C37.0751 35.9249 36.1993 36.6561 35.2475 37.3187L35.2475 41.2419L29.9975 46.4919L26.7938 40.8856L18.1212 32.2121L12.5 29L17.75 23.75L21.694 23.75C22.3506 22.7974 23.0776 21.9224 23.875 21.125C28.3853 16.6147 35.677 13.9897 45.75 13.25ZM23.6833 40.2963L26.1582 42.7712L22.4459 46.4835L19.971 44.0086L23.6833 40.2963ZM19.971 36.584L22.4459 39.0589L16.2587 45.2461L13.7838 42.7712L19.971 36.584ZM16.2587 32.8717L18.7336 35.3466L15.0213 39.0589L12.5464 36.584L16.2587 32.8717ZM32.625 23.75C31.1753 23.75 30 24.9253 30 26.375C30 27.8247 31.1753 29 32.625 29C34.0747 29 35.25 27.8247 35.25 26.375C35.25 24.9253 34.0747 23.75 32.625 23.75Z" fill="white"/>
</svg>
