<svg width="48" height="43" viewBox="0 0 48 43" fill="none" xmlns="http://www.w3.org/2000/svg">
<rect x="0.143066" y="0.571411" width="47.1439" height="42.0009" rx="2.14287" fill="#101010"/>
<path fill-rule="evenodd" clip-rule="evenodd" d="M11.2149 25.0754V33.1342C11.2149 33.6517 11.6349 34.0717 12.1524 34.0717H14.1699C14.3919 34.0717 14.6067 33.993 14.7761 33.8494C14.9455 33.7059 15.0584 33.5069 15.0949 33.2879L15.5899 30.3217H31.8399L32.3336 33.2879C32.37 33.5069 32.483 33.7059 32.6524 33.8494C32.8218 33.993 33.0366 34.0717 33.2586 34.0717H35.2774C35.526 34.0717 35.7645 33.9729 35.9403 33.7971C36.1161 33.6213 36.2149 33.3828 36.2149 33.1342V25.0754C36.2149 23.6059 35.78 22.1693 34.9649 20.9467L33.9899 19.4842C33.9029 19.3539 33.8284 19.2158 33.7674 19.0717H35.0099C35.1841 19.0717 35.3548 19.0231 35.503 18.9315C35.6511 18.8399 35.7708 18.7088 35.8486 18.5529L36.1611 17.9279C36.2324 17.7851 36.2661 17.6264 36.2589 17.4669C36.2517 17.3074 36.2039 17.1524 36.12 17.0166C36.0361 16.8807 35.9189 16.7686 35.7796 16.6907C35.6402 16.6129 35.4833 16.5719 35.3236 16.5717H33.2149L32.8274 14.6392C32.7095 14.0506 32.4246 13.5084 32.0067 13.0775C31.5889 12.6466 31.0558 12.3451 30.4711 12.2092C28.6436 11.7842 26.3911 11.5717 23.7149 11.5717C21.0374 11.5717 18.7861 11.7842 16.9586 12.2092C16.3737 12.3449 15.8404 12.6463 15.4223 13.0772C15.0042 13.5082 14.7191 14.0504 14.6011 14.6392L14.2136 16.5717H12.1074C11.9477 16.5719 11.7908 16.6129 11.6514 16.6907C11.512 16.7686 11.3949 16.8807 11.311 17.0166C11.2271 17.1524 11.1793 17.3074 11.1721 17.4669C11.1649 17.6264 11.1986 17.7851 11.2699 17.9279L11.5824 18.5529C11.6601 18.7086 11.7796 18.8395 11.9275 18.9312C12.0754 19.0228 12.2459 19.0714 12.4199 19.0717H13.6636C13.6025 19.2158 13.528 19.3539 13.4411 19.4842L12.4649 20.9467C11.6499 22.1692 11.2149 23.6054 11.2149 25.0754ZM31.1661 19.0767C31.2522 19.509 31.3951 19.928 31.5911 20.3229H15.8386C16.0349 19.9292 16.1774 19.5104 16.2636 19.0767L17.0536 15.1304C17.0769 15.0124 17.1338 14.9037 17.2174 14.8172C17.301 14.7307 17.4077 14.6702 17.5249 14.6429C19.1474 14.2679 21.2149 14.0717 23.7149 14.0717C26.2149 14.0717 28.2824 14.2667 29.9049 14.6442C30.0221 14.6712 30.129 14.7314 30.2128 14.8176C30.2966 14.9039 30.3537 15.0125 30.3774 15.1304L31.1661 19.0767ZM15.5899 26.5717C16.0871 26.5717 16.5641 26.3741 16.9157 26.0225C17.2673 25.6709 17.4649 25.1939 17.4649 24.6967C17.4649 24.1994 17.2673 23.7225 16.9157 23.3708C16.5641 23.0192 16.0871 22.8217 15.5899 22.8217C15.0926 22.8217 14.6157 23.0192 14.264 23.3708C13.9124 23.7225 13.7149 24.1994 13.7149 24.6967C13.7149 25.1939 13.9124 25.6709 14.264 26.0225C14.6157 26.3741 15.0926 26.5717 15.5899 26.5717ZM33.7149 24.6967C33.7149 25.1939 33.5173 25.6709 33.1657 26.0225C32.8141 26.3741 32.3371 26.5717 31.8399 26.5717C31.3426 26.5717 30.8657 26.3741 30.514 26.0225C30.1624 25.6709 29.9649 25.1939 29.9649 24.6967C29.9649 24.1994 30.1624 23.7225 30.514 23.3708C30.8657 23.0192 31.3426 22.8217 31.8399 22.8217C32.3371 22.8217 32.8141 23.0192 33.1657 23.3708C33.5173 23.7225 33.7149 24.1994 33.7149 24.6967Z" fill="white"/>
</svg>
