<svg width="59" height="59" viewBox="0 0 59 59" fill="none" xmlns="http://www.w3.org/2000/svg">
<g clip-path="url(#clip0_221_863)">
<path d="M38.125 43H21.875C21.013 43 20.1864 43.3424 19.5769 43.9519C18.9674 44.5614 18.625 45.388 18.625 46.25V49.5C18.625 50.362 18.9674 51.1886 19.5769 51.7981C20.1864 52.4076 21.013 52.75 21.875 52.75H38.125C38.987 52.75 39.8136 52.4076 40.4231 51.7981C41.0326 51.1886 41.375 50.362 41.375 49.5V46.25C41.375 45.388 41.0326 44.5614 40.4231 43.9519C39.8136 43.3424 38.987 43 38.125 43ZM38.125 49.5H21.875V46.25H38.125V49.5Z" fill="white"/>
<path d="M50.6488 27.2261L31.1488 7.72612C30.998 7.57516 30.8189 7.45541 30.6217 7.3737C30.4246 7.29199 30.2133 7.24994 29.9999 7.24994C29.7865 7.24994 29.5752 7.29199 29.3781 7.3737C29.1809 7.45541 29.0018 7.57516 28.851 7.72612L9.35102 27.2261C9.12383 27.4534 8.96912 27.7429 8.90645 28.0581C8.84378 28.3732 8.87596 28.6999 8.99892 28.9968C9.12189 29.2937 9.33011 29.5475 9.59728 29.726C9.86444 29.9046 10.1786 29.9999 10.4999 30H18.6249V36.5C18.6259 37.3616 18.9686 38.1877 19.5779 38.797C20.1872 39.4063 21.0132 39.749 21.8749 39.75H38.1249C38.9865 39.7488 39.8125 39.4061 40.4217 38.7968C41.031 38.1876 41.3737 37.3616 41.3749 36.5V30H49.4999C49.8212 29.9999 50.1353 29.9046 50.4025 29.726C50.6697 29.5475 50.8779 29.2937 51.0009 28.9968C51.1238 28.6999 51.156 28.3732 51.0933 28.0581C51.0307 27.7429 50.876 27.4534 50.6488 27.2261ZM38.1249 26.75V36.5H21.8749V26.75H14.4228L29.9999 11.1729L45.577 26.75H38.1249Z" fill="white"/>
</g>
<defs>
<clipPath id="clip0_221_863">
<rect width="52" height="52" fill="white" transform="translate(4 4)"/>
</clipPath>
</defs>
</svg>
