<svg width="255" height="258" viewBox="0 0 255 258" fill="none" xmlns="http://www.w3.org/2000/svg">
<g filter="url(#filter0_d_4044_2)">
<path d="M22 128.498C22 270.5 231.507 268.825 232.392 128.498C232.746 72.1968 187.105 21.5 130.396 21.5C62.3641 21.5 28.3994 83.2113 28.3994 83.2113M28.3994 83.2113V36.7011M28.3994 83.2113H48.9006H73.6857" stroke="url(#paint0_linear_4044_2)" stroke-width="4.02616" stroke-linecap="round" stroke-linejoin="round" shape-rendering="crispEdges"/>
</g>
<g filter="url(#filter1_d_4044_2)">
<path fill-rule="evenodd" clip-rule="evenodd" d="M111.039 90.6723C111.814 88.9296 113.542 87.8066 115.449 87.8066H153.562C157.149 87.8066 159.483 91.5816 157.878 94.7902L147.037 116.473H163.08C167.379 116.473 169.532 121.671 166.492 124.711L109.384 181.819C105.783 185.419 99.7837 181.711 101.394 176.88L113.567 140.361H96.3805C92.8884 140.361 90.5527 136.767 91.9709 133.576L111.039 90.6723Z" fill="white"/>
</g>
<defs>
<filter id="filter0_d_4044_2" x="0.145885" y="0.934258" width="254.102" height="256.58" filterUnits="userSpaceOnUse" color-interpolation-filters="sRGB">
<feFlood flood-opacity="0" result="BackgroundImageFix"/>
<feColorMatrix in="SourceAlpha" type="matrix" values="0 0 0 0 0 0 0 0 0 0 0 0 0 0 0 0 0 0 127 0" result="hardAlpha"/>
<feOffset dy="1.28837"/>
<feGaussianBlur stdDeviation="9.92047"/>
<feComposite in2="hardAlpha" operator="out"/>
<feColorMatrix type="matrix" values="0 0 0 0 0.308924 0 0 0 0 0.404162 0 0 0 0 0.904167 0 0 0 0.95 0"/>
<feBlend mode="normal" in2="BackgroundImageFix" result="effect1_dropShadow_4044_2"/>
<feBlend mode="normal" in="SourceGraphic" in2="effect1_dropShadow_4044_2" result="shape"/>
</filter>
<filter id="filter1_d_4044_2" x="77.1198" y="74.6652" width="112.955" height="132.043" filterUnits="userSpaceOnUse" color-interpolation-filters="sRGB">
<feFlood flood-opacity="0" result="BackgroundImageFix"/>
<feColorMatrix in="SourceAlpha" type="matrix" values="0 0 0 0 0 0 0 0 0 0 0 0 0 0 0 0 0 0 127 0" result="hardAlpha"/>
<feOffset dx="3.86512" dy="5.15349"/>
<feGaussianBlur stdDeviation="9.14744"/>
<feComposite in2="hardAlpha" operator="out"/>
<feColorMatrix type="matrix" values="0 0 0 0 0.308924 0 0 0 0 0.404162 0 0 0 0 0.904167 0 0 0 0.38 0"/>
<feBlend mode="normal" in2="BackgroundImageFix" result="effect1_dropShadow_4044_2"/>
<feBlend mode="normal" in="SourceGraphic" in2="effect1_dropShadow_4044_2" result="shape"/>
</filter>
<linearGradient id="paint0_linear_4044_2" x1="130.396" y1="26.5015" x2="130.396" y2="227.128" gradientUnits="userSpaceOnUse">
<stop stop-color="white"/>
<stop offset="1" stop-color="#B9C4FF"/>
</linearGradient>
</defs>
</svg>
