<svg width="59" height="59" viewBox="0 0 59 59" fill="none" xmlns="http://www.w3.org/2000/svg">
<g clip-path="url(#clip0_214_711)">
<path d="M45.1245 15.1757C44.7954 14.8228 44.454 14.4814 44.1012 14.1521L43.0776 15.1757L30.7472 27.5062V10.0594V8.61109C30.507 8.60276 30.2657 8.59709 30.0235 8.59709C29.7812 8.59709 29.5401 8.60274 29.2999 8.61109C18.2437 8.99395 9.36719 18.1058 9.36719 29.2535C9.36719 40.6432 18.6335 49.9095 30.0235 49.9095C35.6755 49.9095 40.8038 47.627 44.5371 43.9361C44.5693 43.9131 44.6005 43.888 44.6293 43.8591C44.6581 43.8303 44.6834 43.7992 44.7063 43.7671C48.3971 40.0336 50.6797 34.9051 50.6797 29.2535C50.6797 23.8182 48.5684 18.8675 45.1245 15.1757ZM29.2999 10.0594V28.5296H10.8297C11.2025 18.5122 19.2822 10.4325 29.2999 10.0594ZM30.0235 48.462C19.6739 48.462 11.2116 40.2347 10.8297 29.977H29.7236L43.0776 43.3309C39.6481 46.5129 35.0594 48.462 30.0235 48.462ZM44.1012 42.3075L31.0471 29.2535L44.1009 16.1992C47.2832 19.6284 49.2323 24.2173 49.2323 29.2535C49.2323 34.2894 47.2832 38.8781 44.1012 42.3075Z" fill="white"/>
<path d="M33.438 21.3767C33.5189 21.4102 33.6037 21.4265 33.6878 21.4265C33.8577 21.4265 34.0247 21.3601 34.1497 21.2353L42.623 12.7619C42.7455 12.6394 42.8143 12.4733 42.8143 12.3001C42.8143 12.127 42.7455 11.9609 42.623 11.8384C40.2363 9.45184 37.0632 8.13736 33.6879 8.13715C33.5147 8.13715 33.3487 8.20593 33.2262 8.32836C33.1037 8.45089 33.0349 8.61697 33.0349 8.7902V20.7734C33.0349 21.0376 33.194 21.2757 33.438 21.3767ZM34.3409 9.46155C36.9052 9.60654 39.3093 10.6024 41.2248 12.3132L34.3409 19.197V9.46155Z" fill="white"/>
</g>
<defs>
<clipPath id="clip0_214_711">
<rect width="42" height="42" fill="white" transform="translate(9 8)"/>
</clipPath>
</defs>
</svg>
