<svg width="59" height="59" viewBox="0 0 59 59" fill="none" xmlns="http://www.w3.org/2000/svg">
<path d="M42.355 40.6723L38.61 33.1998L34.865 40.6723" stroke="white" stroke-width="2.625" stroke-linecap="round" stroke-linejoin="round"/>
<path d="M35.5474 39.3423H41.7074" stroke="white" stroke-width="2.625" stroke-linecap="round" stroke-linejoin="round"/>
<path d="M38.6102 46.5002C33.7102 46.5002 29.7202 42.5275 29.7202 37.61C29.7202 32.71 33.6927 28.7202 38.6102 28.7202C43.5102 28.7202 47.5002 32.6925 47.5002 37.61C47.5002 42.5275 43.5277 46.5002 38.6102 46.5002Z" stroke="white" stroke-width="2.625" stroke-linecap="round" stroke-linejoin="round"/>
<path d="M17.785 11.5H24.645C28.2675 11.5 30.0175 13.25 29.93 16.785V23.645C30.0175 27.2675 28.2675 29.0175 24.645 28.93H17.785C14.25 29 12.5 27.25 12.5 23.6275V16.7675C12.5 13.25 14.25 11.5 17.785 11.5Z" stroke="white" stroke-width="2.625" stroke-linecap="round" stroke-linejoin="round"/>
<path d="M24.7674 18.2372H17.6624" stroke="white" stroke-width="2.625" stroke-linecap="round" stroke-linejoin="round"/>
<path d="M21.1975 17.0474V18.2373" stroke="white" stroke-width="2.625" stroke-linecap="round" stroke-linejoin="round"/>
<path d="M22.9823 18.2197C22.9823 21.2822 20.5848 23.7672 17.6448 23.7672" stroke="white" stroke-width="2.625" stroke-linecap="round" stroke-linejoin="round"/>
<path d="M24.7673 23.7675C23.4898 23.7675 22.3348 23.085 21.5298 22" stroke="white" stroke-width="2.625" stroke-linecap="round" stroke-linejoin="round"/>
<path d="M12.5 34.25C12.5 41.0225 17.9775 46.5 24.75 46.5L22.9125 43.4375" stroke="white" stroke-width="2.625" stroke-linecap="round" stroke-linejoin="round"/>
<path d="M47.5 23.75C47.5 16.9775 42.0225 11.5 35.25 11.5L37.0875 14.5625" stroke="white" stroke-width="2.625" stroke-linecap="round" stroke-linejoin="round"/>
</svg>
