<svg width="59" height="59" viewBox="0 0 59 59" fill="none" xmlns="http://www.w3.org/2000/svg">
<path d="M25.6667 39.932V45.1658C25.6667 47.5591 27.6067 49.4991 30 49.4991C32.3933 49.4991 34.3333 47.5591 34.3333 45.1658V39.932M30 10.5V12.6667M43.7893 16.2108L42.2573 17.7428M16.2108 16.2108L17.7428 17.7428M12.6667 30H10.5M49.5 30H47.3333M40.8333 30C40.8333 35.983 35.983 40.8333 30 40.8333C24.0169 40.8333 19.1667 35.983 19.1667 30C19.1667 24.0169 24.0169 19.1667 30 19.1667C35.983 19.1667 40.8333 24.0169 40.8333 30Z" stroke="white" stroke-width="4.33333" stroke-linecap="round" stroke-linejoin="round"/>
</svg>
