<svg width="38" height="38" viewBox="0 0 38 38" fill="none" xmlns="http://www.w3.org/2000/svg">
<path d="M11.0833 22.1667L13.9283 18.7526C15.0557 17.3998 15.6194 16.7232 16.361 16.7232C17.1026 16.7232 17.6663 17.3998 18.7938 18.7526L19.2061 19.2475C20.3336 20.6003 20.8972 21.2769 21.6389 21.2769C22.3803 21.2769 22.9442 20.6003 24.0715 19.2475L26.9166 15.8334" stroke="white" stroke-width="2" stroke-linecap="round"/>
<path d="M34.8334 19C34.8334 26.4638 34.8334 30.1959 32.5146 32.5145C30.196 34.8333 26.4639 34.8333 19.0001 34.8333C11.5362 34.8333 7.80422 34.8333 5.48549 32.5145C3.16675 30.1959 3.16675 26.4638 3.16675 19C3.16675 11.536 3.16675 7.8041 5.48549 5.48537C7.80422 3.16663 11.5362 3.16663 19.0001 3.16663C26.4639 3.16663 30.196 3.16663 32.5146 5.48537C34.0565 7.02712 34.5731 9.19366 34.7462 12.6666" stroke="white" stroke-width="2" stroke-linecap="round"/>
</svg>
