<svg width="52" height="50" viewBox="0 0 52 50" fill="none" xmlns="http://www.w3.org/2000/svg">
<path d="M39.4514 26.7608H30.7226C30.5637 25.9964 30.4613 25.2404 30.4008 24.6559C33.9061 22.5795 34.3084 18.668 34.3084 18.668L34.3225 11.6872L28.6773 11.6977L26.6088 9.30571L24.5399 11.6242C24.5399 11.6242 18.5056 11.601 18.3541 11.6242L18.3554 18.6684C18.3554 18.6684 18.738 22.3869 22.0069 24.4996C21.9487 25.1007 21.8441 25.9272 21.6681 26.7612H13.2041C13.2041 26.7612 14.7455 14.3126 16.2852 7.28669C17.6996 0.838675 25.049 0.413156 26.245 0.386014V0.384705C26.245 0.384705 26.2748 0.384705 26.3278 0.384705C26.3807 0.384705 26.4105 0.384705 26.4105 0.384705V0.386014C27.6065 0.413156 34.9559 0.838675 36.3704 7.28669C37.91 14.3121 39.4514 26.7608 39.4514 26.7608Z" fill="#CDD2FF"/>
<path d="M20.4591 29.6995C20.3816 29.714 20.2897 29.7293 20.1851 29.7472C20.2897 29.728 20.3816 29.7127 20.4591 29.6995Z" fill="#CDD2FF"/>
<path d="M52 49.6153L48.2697 38.7519C47.0969 35.3359 44.328 32.7066 40.8533 31.7199C38.4311 31.0321 35.9051 30.4801 34.1019 30.1194C33.5175 35.4541 30.1339 45.2923 26.0468 45.2923C21.969 45.2923 18.5902 35.4953 17.9957 30.1531C16.1386 30.5164 13.6 31.061 11.1804 31.7348C7.68561 32.708 4.89873 35.3478 3.72067 38.779L0 49.6153H52Z" fill="#CDD2FF"/>
<path d="M34.7966 30.3536L34.4087 31.3127L31.6989 30.2152L31.6266 30.1443C30.5265 29.0726 30.0778 26.4258 29.9097 24.9247C30.2638 24.7474 30.5895 24.5508 30.8899 24.3429C31.0553 26.1916 31.508 28.4816 32.2837 29.3349L34.7966 30.3536Z" fill="#CDD2FF"/>
<path d="M30.4932 24.9505C30.245 25.0648 30.1829 24.5381 30.3501 24.1074H30.3151C29.211 24.8043 27.8854 25.2233 26.3497 25.3563H26.3134C24.6494 25.2114 23.3549 24.7395 22.3493 24.1074H22.0415C22.0297 24.2645 22.0122 24.4536 21.9903 24.6616C21.9724 24.6537 21.9597 24.6484 21.9597 24.6484L20.4025 29.7722L20.4021 29.7726L17.9956 30.1531L18.0525 34.9708C18.0525 34.9708 23.5808 33.2223 24.4817 28.0023C28.7684 27.9471 30.4932 24.9505 30.4932 24.9505Z" fill="#CDD2FF"/>
<path d="M18.3552 17.9496C16.777 17.8419 16.5843 17.1003 16.6176 16.2694C16.6522 15.4087 16.3401 14.5148 15.8178 12.4739C15.2964 10.433 18.1131 11.4854 18.1131 11.4854L18.3534 12.0812L18.3552 17.9496Z" fill="#CDD2FF"/>
<path d="M36.5495 12.4744C36.029 14.5153 35.7169 15.4088 35.7515 16.2699C35.7825 17.0456 35.6171 17.7439 34.3156 17.9212L34.3226 11.6251C34.3226 11.6251 34.291 11.6001 34.2341 11.5541L34.2613 11.4863C34.2608 11.4854 37.0692 10.433 36.5495 12.4744Z" fill="#CDD2FF"/>
<path d="M26.3941 26.3904L26.2474 26.3887C22.2851 26.0516 20.2079 23.9861 19.1629 22.313C18.0356 20.5076 17.8482 18.7928 17.8408 18.7206L17.8382 18.6676L17.8364 11.1807L18.2746 11.1129C18.3263 11.105 18.4629 11.0835 24.3085 11.1059L26.6143 8.52167L28.9131 11.1799L34.8405 11.1685L34.8226 18.7206C34.8152 18.7928 34.6278 20.5076 33.5005 22.313C32.4555 23.9861 30.3783 26.0516 26.416 26.3887L26.3941 26.3904ZM26.3135 25.3559H26.3499C29.1779 25.1103 31.2884 23.9021 32.6232 21.7649C33.5592 20.2663 33.7667 18.8317 33.7912 18.6369L33.8043 12.2047L28.4411 12.2148L26.6025 10.0889L24.7708 12.1421L24.5379 12.1412C22.652 12.1338 19.9614 12.1272 18.8718 12.1329L18.8731 18.6387C18.9296 19.1163 19.7486 24.7851 26.3135 25.3559Z" fill="#CDD2FF"/>
<path d="M30.3151 24.1074C29.211 24.8043 27.8854 25.2233 26.3497 25.3563H26.3134C24.6494 25.2114 23.3549 24.7395 22.3493 24.1074H22.0415C22.0223 24.3608 21.9912 24.6905 21.9443 25.0643C23.0449 25.7289 24.4528 26.2358 26.2472 26.3882L26.3935 26.3908L26.4154 26.3882C27.5339 26.2936 28.5035 26.0612 29.3401 25.7376C29.7438 25.3021 30.094 24.7667 30.3501 24.1074H30.3151Z" fill="#CDD2FF"/>
</svg>
