<svg width="52" height="50" viewBox="0 0 52 50" fill="none" xmlns="http://www.w3.org/2000/svg">
<path d="M52 49.8307L48.2702 38.9688C47.0948 35.5459 44.3163 32.9179 40.8347 31.9308C37.0878 30.8687 33.0989 30.1315 31.9226 29.9227C31.9432 29.9446 31.965 29.9678 31.9874 29.9888L26.3581 34.6471L20.4027 29.9888C20.4285 29.9643 20.2193 29.9367 20.2438 29.9096C19.1152 30.1018 14.9752 30.8543 11.1207 31.947C7.6544 32.9293 4.89864 35.5638 3.72848 38.9718L0 49.8307H52Z" fill="#CDD2FF"/>
<path d="M27.4196 0.169281C13.0034 0.169281 15.3096 16.629 15.6108 20.5593C15.961 25.1361 22.0753 27.1057 22.0753 27.1057L26.7083 26.79L30.2559 27.1057C30.2559 27.1057 36.766 25.1366 37.1162 20.5593C37.4178 16.629 39.573 0.234071 27.4196 0.169281ZM34.3079 18.8835C34.3079 18.8835 33.6298 25.4715 26.372 26.0887H26.2911C19.0333 25.4715 18.3552 18.8835 18.3552 18.8835L18.3539 11.8398C18.3539 11.8398 27.29 9.71528 29.3589 7.64638C29.3589 7.64638 31.8293 10.4048 34.3219 11.9024L34.3079 18.8835Z" fill="#CDD2FF"/>
<path d="M32.348 29.6193C31.5333 28.8244 31.06 26.4569 30.8884 24.5574C30.5886 24.768 30.2624 24.9632 29.9069 25.1405C30.058 26.4643 30.424 28.6781 31.2632 29.9179L26.3488 33.9843L21.1354 29.9065C21.9978 28.6212 22.3572 26.3059 22.4981 25.0061C22.1427 24.8122 21.8165 24.599 21.518 24.3714C21.3617 26.2993 20.8845 28.7985 20.0414 29.6193L19.6172 30.0317L26.3663 35.3121L32.7599 30.0199L32.348 29.6193Z" fill="#CDD2FF"/>
<path d="M30.4936 25.1663C30.4936 25.1663 28.511 28.6142 23.5116 28.183L22.348 32.1912L20.4026 29.9892L21.9602 24.8647C21.9602 24.8647 26.6579 26.9332 30.4936 25.1663Z" fill="#CDD2FF"/>
<path d="M18.3556 18.1655C16.7775 18.0578 16.5849 17.3162 16.6181 16.4854C16.6532 15.6247 16.3406 14.7308 15.8188 12.6899C15.2974 10.649 18.114 11.7014 18.114 11.7014L18.3543 12.2972L18.3556 18.1655Z" fill="#CDD2FF"/>
<path d="M36.5492 12.6904C36.0287 14.7312 35.7166 15.6247 35.7512 16.4858C35.7823 17.2615 35.6168 17.9598 34.3153 18.1371L34.3223 11.8411C34.3223 11.8411 34.2908 11.8161 34.2339 11.7702L34.261 11.7023C34.261 11.7014 37.0689 10.649 36.5492 12.6904Z" fill="#CDD2FF"/>
<path d="M26.3945 26.6062L26.2478 26.6044C22.2856 26.2673 20.2084 24.2019 19.1634 22.5288C18.0361 20.7234 17.8488 19.0087 17.8413 18.9364L17.8387 18.8835L17.8374 11.4243L18.2432 11.3346C20.7958 10.7707 27.773 8.95399 29.3818 7.34519L29.7968 6.92975L30.1562 7.39422C30.1764 7.42048 32.2116 10.0305 34.5886 11.4585L34.8404 11.6095L34.8228 18.9356C34.8154 19.0078 34.628 20.7225 33.5008 22.5279C32.4558 24.2011 30.3786 26.2665 26.4164 26.6035L26.3945 26.6062ZM26.3135 25.5717H26.3498C29.1778 25.3261 31.2883 24.1179 32.6231 21.9807C33.5586 20.4822 33.7661 19.0476 33.7906 18.8528L33.8042 12.1904C31.9344 10.9993 30.3484 9.24248 29.6773 8.4453C27.2573 10.2261 20.6063 11.8503 18.8714 12.253L18.8727 18.8546C18.9301 19.3322 19.7491 25.0009 26.3135 25.5717Z" fill="#CDD2FF"/>
</svg>
