<svg width="52" height="52" viewBox="0 0 52 52" fill="none" xmlns="http://www.w3.org/2000/svg">
<path d="M37.627 25.6917C37.0805 24.0189 36.8294 22.0652 37.3328 19.9943C38.3815 15.6794 37.3082 9.8049 37.3082 9.8049C36.0609 -0.320622 30.492 2.10792 30.492 2.10792C29.7768 0.872066 27.3703 0.807323 27.3703 0.807323C18.0697 -0.0383057 15.472 9.8049 15.472 9.8049C15.472 9.8049 14.3987 15.6794 15.4487 19.9943C15.9521 22.0652 15.701 24.0189 15.1545 25.6917C14.3361 28.1947 16.5621 30.6545 19.4407 30.4034L21.2166 30.2489C21.6654 29.0038 21.8878 27.4222 21.9829 26.4347C18.6946 24.3092 18.3093 20.5682 18.3093 20.5682L18.3079 13.4812C18.3079 13.4812 18.3093 13.4812 18.3093 13.4799V13.4772C18.3093 13.4772 25.4843 11.6692 29.1267 7.89695L34.3727 13.2953L34.3582 20.5682C34.3582 20.5682 33.9534 24.503 30.4273 26.592C30.5286 27.5754 30.7475 29.0403 31.1637 30.2149L33.3399 30.4034C36.2185 30.6541 38.4454 28.1942 37.627 25.6917Z" fill="#CDD2FF"/>
<path d="M52 51.2442L48.3783 40.6968C47.2169 37.3142 44.4955 34.706 41.0729 33.6675C37.2975 32.5219 33.2499 31.686 32.0533 31.4741C32.074 31.4961 32.0013 31.7199 32.0233 31.7406L26.3598 46.488L20.3682 31.7406C20.3929 31.7159 20.1749 31.5486 20.2 31.5226C19.0548 31.7172 14.8408 32.5413 10.9421 33.6943C7.50275 34.7117 4.77428 37.3394 3.60978 40.7316L0 51.2442H52Z" fill="#CDD2FF"/>
<path d="M32.3862 31.3685C31.5666 30.5686 31.0905 28.1868 30.9187 26.2757C30.6157 26.4876 30.2867 26.6853 29.9286 26.8637C30.2563 29.8816 30.9967 31.2707 31.4283 31.8446L26.3461 45.3028L20.9671 31.8393C21.4067 31.2539 22.1585 29.8309 22.4774 26.7272C22.1184 26.5321 21.7908 26.3176 21.4899 26.0886C21.334 28.0282 20.854 30.5413 20.0044 31.3671L19.7546 31.6103L26.373 48.1775L32.6298 31.6054L32.3862 31.3685Z" fill="#CDD2FF"/>
<path d="M30.5206 26.8883C30.5206 26.8883 28.5258 30.3572 23.4961 29.9238L22.1017 34.6069L20.3682 31.741L21.9352 26.5853C21.9352 26.5853 26.6615 28.6659 30.5206 26.8883Z" fill="#CDD2FF"/>
<path d="M18.3087 19.845C16.7214 19.7367 16.5272 18.9906 16.5607 18.1546C16.5954 17.2887 16.2814 16.3894 15.7564 14.3361C15.2319 12.2828 18.0656 13.3416 18.0656 13.3416L18.3074 13.941L18.3087 19.845Z" fill="#CDD2FF"/>
<path d="M36.6131 14.3361C36.0895 16.3894 35.7754 17.2883 35.8102 18.1546C35.8415 18.9351 35.675 19.6376 34.3656 19.8155L34.3727 13.4812C34.3727 13.4812 34.3409 13.4561 34.2837 13.4099L34.311 13.3416C34.311 13.3416 37.1359 12.2828 36.6131 14.3361Z" fill="#CDD2FF"/>
<path d="M26.3965 28.337L26.2489 28.3352C22.2626 27.9961 20.1727 25.9181 19.1214 24.2348C17.9873 22.4189 17.7988 20.6933 17.7913 20.6206L17.7887 20.5673L17.7874 13.2064L17.7887 13.2055V13.0747L18.182 12.9721C18.1996 12.9677 19.9776 12.5149 22.1692 11.6138C25.0391 10.4339 27.3152 9.0236 28.7523 7.53494L29.1254 7.14868L34.8933 13.0839L34.8761 20.6206C34.8686 20.6933 34.6801 22.4184 33.546 24.2348C32.4947 25.9181 30.4048 27.9961 26.4185 28.3352L26.3965 28.337ZM26.315 27.2962H26.3515C32.9545 26.7219 33.7799 21.0214 33.8376 20.5374L33.8512 13.5054L29.1183 8.63514C25.8098 11.7613 20.3445 13.4508 18.8272 13.8758L18.8285 20.5382C18.8867 21.0188 19.7107 26.7219 26.315 27.2962Z" fill="#CDD2FF"/>
</svg>
