<svg width="52" height="50" viewBox="0 0 52 50" fill="none" xmlns="http://www.w3.org/2000/svg">
<path d="M22.4771 49.5997L23.9257 40.9448L22.9454 37.8185L26.5715 35.237L30.1976 37.8185L29.2173 40.9448L30.6659 49.5997H52L48.2432 38.6581C47.0692 35.2392 44.2944 32.6144 40.8165 31.6284C37.075 30.5677 33.0908 29.8313 31.9151 29.6232C31.9356 29.6451 31.9575 29.6683 31.9798 29.6892L26.3572 34.342L20.4089 29.6892C20.4347 29.6648 20.4592 29.639 20.4837 29.6118C19.3539 29.8042 15.1069 30.5585 11.1804 31.6534C7.69598 32.6249 4.92121 35.2633 3.74677 38.6847L0 49.5997H22.4771Z" fill="#CDD2FF"/>
<path d="M32.34 29.3202C31.5263 28.5275 31.0536 26.1628 30.8818 24.2656C30.5823 24.4746 30.257 24.671 29.9028 24.8467C30.0528 26.169 30.4179 28.3801 31.2561 29.6184L26.3476 33.68L21.1404 29.607C22.0031 28.322 22.3607 26.0094 22.5015 24.7112C22.1465 24.5188 21.8207 24.3045 21.5225 24.0772C21.3664 26.0028 20.8912 28.4991 20.0477 29.3202L19.624 29.7321L26.3651 35.0062L32.751 29.7203L32.34 29.3202Z" fill="#CDD2FF"/>
<path d="M30.4879 24.8725C30.4879 24.8725 28.5076 28.3163 23.5143 27.8856L22.3521 31.889L20.4089 29.6897L21.9647 24.5713C21.9647 24.5713 26.6568 26.6372 30.4879 24.8725Z" fill="#CDD2FF"/>
<path d="M36.1873 12.3756L34.3033 12.888L34.3046 11.5619L32.4681 8.94538C30.518 9.19461 28.5552 9.3201 26.5924 9.3201C24.6296 9.3201 22.6664 9.19461 20.7167 8.94538L18.3639 11.5619V12.9112L16.3958 12.3751C16.3958 12.3751 16.0911 4.81253 20.3874 2.24021C20.9454 1.90702 21.4749 1.62281 21.9746 1.38014C22.6541 1.0522 23.3616 0.806901 24.0861 0.644245C24.8093 0.481589 25.5491 0.400269 26.2916 0.400269C27.7765 0.400269 29.2487 0.72427 30.6076 1.38058C31.1074 1.62325 31.6382 1.90745 32.1949 2.24063C36.4908 4.81296 36.1873 12.3756 36.1873 12.3756Z" fill="#CDD2FF"/>
<path d="M26.3935 26.3106L26.2471 26.3089C22.2895 25.9722 20.2148 23.9097 19.1711 22.2381C18.0452 20.4349 17.858 18.7222 17.8506 18.6501L17.848 18.5972L17.8467 11.3638L20.5139 8.39794L20.7828 8.43249C24.638 8.92702 28.5479 8.92702 32.4031 8.43249L32.7126 8.3927L34.8228 11.3988L34.8127 18.6496C34.8053 18.7218 34.6182 20.4345 33.4922 22.2377C32.4485 23.9088 30.3738 25.9718 26.4163 26.3084L26.3935 26.3106ZM26.3127 25.2774H26.3489C29.1736 25.0321 31.2815 23.8253 32.6147 21.6907C33.5487 20.1949 33.7563 18.7624 33.7808 18.5666L33.7878 11.725L32.2233 9.49632C28.4709 9.95149 24.6712 9.95017 20.9196 9.49106L18.879 11.7599L18.8803 18.5679C18.938 19.0453 19.7561 24.7072 26.3127 25.2774Z" fill="#CDD2FF"/>
<path d="M18.3643 17.8801C16.7884 17.7725 16.5956 17.0318 16.6288 16.2019C16.6634 15.3419 16.3516 14.4494 15.8304 12.411C15.3097 10.3725 18.1229 11.4237 18.1229 11.4237L18.3629 12.0188L18.3643 17.8801Z" fill="#CDD2FF"/>
<path d="M36.5362 12.411C36.0163 14.4494 35.7046 15.3419 35.7391 16.2019C35.7702 16.9767 35.6049 17.6741 34.305 17.8508L34.312 11.5623C34.312 11.5623 34.2805 11.5374 34.2236 11.4915L34.2507 11.4237C34.2507 11.4237 37.0552 10.3725 36.5362 12.411Z" fill="#CDD2FF"/>
</svg>
