<svg width="52" height="50" viewBox="0 0 52 50" fill="none" xmlns="http://www.w3.org/2000/svg">
<path d="M36.5136 7.60202C35.9514 8.25476 35.6906 9.11487 35.7497 9.97454L35.9382 12.6944H34.3077L34.309 11.3986L34.2587 7.48346C33.1085 7.85445 29.3693 8.19395 27.023 8.17207C23.2343 8.13576 19.464 7.78183 19.464 7.78183C18.9263 8.92544 18.3607 11.3946 18.3607 11.3946V11.3973L18.3593 11.3986V12.6944H16.7507L15.8241 12.2473C15.8241 12.2473 13.6169 3.9402 18.5916 3.26208C18.5916 3.26208 20.0454 1.0978 22.565 1.13018C25.6983 1.17043 33.7845 3.05821 37.144 0.635376C37.144 0.634501 38.4775 5.32268 36.5136 7.60202Z" fill="#CDD2FF"/>
<path d="M52 49.3642L48.2406 38.3105C47.0769 34.8893 44.3119 32.2534 40.8378 31.2581C36.7989 30.101 32.4738 29.3253 31.6964 29.1892C31.7856 29.3196 31.881 29.436 31.9834 29.5353L26.3577 34.1907L20.406 29.5353C20.5106 29.4347 20.6077 29.3144 20.6996 29.1801C20.0757 29.2846 15.4798 30.0725 11.2357 31.2625C7.72613 32.2464 4.92267 34.8885 3.74888 38.3394L0 49.3647H52V49.3642Z" fill="#CDD2FF"/>
<path d="M32.3438 29.1648C31.5283 28.3716 31.0567 26.0056 30.8847 24.106C30.5851 24.3165 30.2596 24.5129 29.9039 24.6901C30.0548 26.0118 30.4206 28.2255 31.2592 29.4645L26.3479 33.5283L21.1378 29.4531C22.001 28.1686 22.3589 25.8534 22.4997 24.5558C22.1445 24.362 21.819 24.1489 21.5202 23.9201C21.364 25.8481 20.8871 28.3445 20.0445 29.1648L19.6206 29.5782L26.3654 34.8539L32.755 29.5664L32.3438 29.1648Z" fill="#CDD2FF"/>
<path d="M26.3934 26.1548L26.2469 26.153C22.2871 25.8162 20.2112 23.7521 19.1669 22.08C18.0404 20.2757 17.8531 18.5621 17.8457 18.4899L17.8431 18.437L17.8413 11.1286L17.9008 11.0871C18.0474 10.4746 18.5238 8.56448 18.9959 7.56087L19.1503 7.23232L19.5117 7.26644C19.5493 7.26994 23.3052 7.61862 27.0274 7.6545C29.3916 7.67725 33.028 7.336 34.0994 6.99038L34.7657 6.77557L34.8257 11.3981L34.8187 18.4636L34.816 18.4899C34.8086 18.5621 34.6214 20.2757 33.4948 22.08C32.4505 23.7521 30.3746 25.8162 26.4149 26.153L26.3934 26.1548ZM26.3129 25.121H26.3497C32.9077 24.5509 33.728 18.8893 33.7857 18.4076L33.7927 11.4008L33.7503 8.13924C32.1053 8.46824 28.9729 8.70754 27.0177 8.68829C23.9404 8.65854 20.8425 8.41792 19.7908 8.32868C19.3699 9.39135 18.9547 11.1203 18.8764 11.4528V18.4076C18.9337 18.8854 19.7523 24.5505 26.3129 25.121Z" fill="#CDD2FF"/>
<path d="M18.3599 17.7195C16.7827 17.6118 16.5902 16.8707 16.6235 16.0404C16.658 15.1798 16.3461 14.2869 15.8246 12.2473C15.3035 10.2077 18.1184 11.2594 18.1184 11.2594L18.3586 11.8549L18.3599 17.7195Z" fill="#CDD2FF"/>
<path d="M36.5424 12.2473C36.0222 14.2869 35.7103 15.1798 35.7449 16.0404C35.7759 16.8156 35.6106 17.5134 34.3099 17.6902L34.3169 11.3981C34.3169 11.3981 34.2854 11.3732 34.2285 11.3273L34.2556 11.2594C34.2556 11.2594 37.0617 10.2077 36.5424 12.2473Z" fill="#CDD2FF"/>
<path d="M30.4902 24.7154C30.4902 24.7154 28.5088 28.1611 23.5126 27.7302L22.3497 31.7359L20.4055 29.5353L21.9621 24.414C21.9621 24.414 26.6569 26.4816 30.4902 24.7154Z" fill="#CDD2FF"/>
<path d="M33.8843 15.6659C33.8843 18.9825 30.9553 20.9206 30.9553 20.9206C30.0856 18.6146 26.9273 18.5319 26.1678 18.5459C25.4088 18.5315 22.2501 18.6146 21.3803 20.9206C21.3803 20.9206 18.4518 18.9825 18.4518 15.6659C18.4518 15.6659 17.5243 24.9631 26.0453 25.6197V25.6377C26.0869 25.6355 26.1267 25.6316 26.1678 25.6285C26.209 25.6311 26.2488 25.635 26.2908 25.6377V25.6197C34.8123 24.9631 33.8843 15.6659 33.8843 15.6659ZM26.1718 24.0741L26.1683 24.0745L26.1648 24.0741C24.5885 23.9524 23.3372 23.4988 22.3695 22.6938L22.8315 21.4679C23.3241 20.1616 25.593 20.0955 26.0427 20.0955C26.079 20.0955 26.1678 20.0968 26.1678 20.0968C26.1678 20.0968 26.2571 20.0955 26.2934 20.0955C26.7431 20.0955 29.012 20.1616 29.5046 21.4679L29.9666 22.6938C28.9993 23.4988 27.7481 23.9524 26.1718 24.0741Z" fill="#CDD2FF"/>
</svg>
