<svg width="52" height="52" viewBox="0 0 52 52" fill="none" xmlns="http://www.w3.org/2000/svg">
<path d="M36.2178 13.9268L34.2838 15.5079L34.2864 13.204C34.2864 13.204 31.4812 10.7727 30.9285 9.59736C29.4299 10.0807 27.8747 10.3229 26.3194 10.3229C24.7628 10.3229 23.2088 10.0807 21.7103 9.59736C21.4411 10.168 20.61 11.0676 19.8444 11.8262C19.0805 12.584 18.382 13.1996 18.382 13.1996V13.2022C18.3807 13.2035 18.3807 13.2035 18.3807 13.2035V14.189C17.0457 14.1232 15.9197 14.0656 15.8525 14.0512C15.8525 14.0512 16.3743 7.65642 17.9204 6.45277C19.4666 5.25043 19.4666 4.99303 19.4666 4.99303L21.3992 2.35146L21.743 3.91939L23.4387 1.92217L23.5897 3.44648L25.4259 0.676208L26.4891 3.02766L27.3913 1.16961L28.2612 2.99539L29.0238 1.32013L30.0651 3.83257L30.5058 2.4579L32.7067 5.05672C32.7067 5.05672 34.2851 5.42144 35.2733 7.48279C36.2601 9.54588 36.2178 13.9268 36.2178 13.9268Z" fill="#CDD2FF"/>
<path d="M52 51.3238L48.194 40.2396C47.0227 36.8285 44.2537 34.2096 40.7841 33.2258C37.0501 32.1674 33.0749 31.4328 31.9026 31.2247C31.9231 31.2465 31.9454 31.2696 31.9672 31.2906L29.912 32.9929C27.8362 34.7091 24.8456 34.7506 22.7236 33.0906L20.4224 31.2906C20.4481 31.2661 20.4725 31.2404 20.497 31.2133C19.3697 31.4053 15.1318 32.1578 11.2141 33.2503C7.73756 34.2196 4.96947 36.8516 3.79723 40.2654L0 51.3238H52Z" fill="#CDD2FF"/>
<path d="M32.3257 30.9228C31.5954 30.2104 31.14 28.2271 30.9327 26.4555C30.8965 26.1623 30.8695 25.8783 30.8472 25.6034L30.8245 25.2789C30.3691 25.6305 29.8687 25.9237 29.3234 26.1623H29.8643C29.887 26.4014 29.9184 26.6854 29.9633 26.9964C30.1483 28.3624 30.5357 30.2601 31.3158 31.3242C30.1348 32.92 28.282 33.8802 26.2804 33.9073H26.1949C24.1663 33.9073 22.2729 32.9471 21.0736 31.3198C21.8759 30.22 22.2637 28.2406 22.4439 26.8703C22.4801 26.609 22.5072 26.3699 22.5251 26.1627H23.35C22.6917 25.8787 22.1285 25.5227 21.646 25.1305H21.5784L21.5422 25.6039C21.5243 25.8246 21.5059 26.0545 21.4789 26.2844C21.2804 28.0967 20.8162 30.1886 20.0632 30.9232L19.7478 31.2251L20.0994 31.7347C21.4833 33.7454 23.7553 34.9355 26.1945 34.9355H26.2935C28.7641 34.9041 31.0496 33.6464 32.3973 31.5724L32.6272 31.2164L32.3257 30.9228Z" fill="#CDD2FF"/>
<path d="M34.6248 12.8139C33.8675 12.1604 31.8118 10.2622 31.3925 9.37878L31.1988 8.96869L30.7704 9.1083C27.8584 10.0458 24.7792 10.0458 21.8672 9.1083L21.4388 8.96869L21.2451 9.37878C20.8437 10.2308 18.8015 12.1421 18.0442 12.8095L17.864 12.9356V20.2252L17.8684 20.2749C17.8775 20.3469 18.0621 22.0557 19.1846 23.8588C19.6806 24.6524 20.4153 25.5402 21.4793 26.284C21.7769 26.496 22.0971 26.6897 22.4439 26.8699C23.4626 27.393 24.7116 27.7852 26.2442 27.9156L26.393 27.92L26.4156 27.9156C27.8265 27.7983 28.9944 27.4558 29.9633 26.996C30.315 26.8293 30.6352 26.6487 30.9327 26.455C32.132 25.675 32.9387 24.7148 33.4753 23.8584C34.5978 22.0553 34.7827 20.3464 34.7915 20.2745L34.8006 12.967L34.6248 12.8139ZM33.7641 20.1933C33.7414 20.387 33.5342 21.8162 32.601 23.3082C32.1141 24.0883 31.5234 24.7462 30.825 25.2784C30.3695 25.63 29.8691 25.9232 29.3238 26.1618C28.4447 26.5497 27.4483 26.7931 26.3485 26.8878H26.3123C25.1535 26.7887 24.1754 26.527 23.3505 26.1618C22.6921 25.8778 22.1289 25.5218 21.6464 25.1296C19.3294 23.2498 18.9372 20.5179 18.8967 20.1933V13.4312C19.4826 12.9038 21.2136 11.3123 21.9487 10.2125C24.8159 11.051 27.8226 11.0553 30.6897 10.2125C31.4336 11.3306 33.1738 12.9082 33.7732 13.4356L33.7641 20.1933Z" fill="#CDD2FF"/>
<path d="M18.3819 19.508C16.8091 19.4006 16.6172 18.6616 16.6503 17.8336C16.6852 16.9755 16.3737 16.085 15.8537 14.0512C15.3341 12.0173 18.141 13.0661 18.141 13.0661L18.3805 13.6598L18.3819 19.508Z" fill="#CDD2FF"/>
<path d="M36.513 14.0512C35.9943 16.085 35.6832 16.9755 35.7177 17.8336C35.7487 18.6066 35.5838 19.3025 34.2868 19.4787L34.2938 13.2044C34.2938 13.2044 34.2623 13.1795 34.2061 13.1337L34.2331 13.0661C34.2331 13.0661 37.0309 12.0173 36.513 14.0512Z" fill="#CDD2FF"/>
<path d="M30.4782 26.4847C30.4782 26.4847 28.5024 29.9207 23.5202 29.491L22.3606 33.4854L20.4219 31.291L21.9741 26.1841C21.9741 26.1841 26.6557 28.2455 30.4782 26.4847Z" fill="#CDD2FF"/>
</svg>
