<svg width="52" height="50" viewBox="0 0 52 50" fill="none" xmlns="http://www.w3.org/2000/svg">
<path d="M22.5644 49.0989L23.9059 41.084L22.9162 37.9279L26.5769 35.3217L30.2376 37.9279L29.248 41.084L30.5894 49.0989H52L48.4554 38.7754C47.2702 35.3239 44.469 32.6741 40.9579 31.6787C37.1803 30.6078 33.1581 29.8645 31.9715 29.6544C31.9923 29.6764 32.0148 29.6998 32.0368 29.721L26.3606 34.4182L20.3556 29.721C20.3816 29.6963 20.4063 29.6703 20.4311 29.6429C19.2904 29.8371 15.0029 30.5986 11.039 31.7039C7.52133 32.6847 4.72009 35.3482 3.53444 38.8023L0 49.0989H22.5644Z" fill="#CDD2FF"/>
<path d="M32.4006 29.348C31.5389 28.5071 31.0565 25.9243 30.9051 23.9688L30.8918 23.7967L30.039 25.5933C30.2332 26.9074 30.6062 28.6139 31.3063 29.649L26.3509 33.7494L21.0945 29.6376C21.9381 28.3808 22.3044 26.1473 22.4554 24.819L21.5205 23.5323L21.4878 23.9688C21.3364 25.9243 20.8557 28.5071 19.991 29.3467L19.5632 29.7638L26.3686 35.0882L32.8155 29.7519L32.4006 29.348Z" fill="#CDD2FF"/>
<path d="M36.1491 11.2573L34.3812 13.6679L34.3839 11.4202C34.3839 11.4202 31.5455 8.96018 30.9863 7.771C29.47 8.26009 27.8963 8.50376 26.3227 8.50376C24.749 8.50376 23.1753 8.26009 21.6591 7.771C21.388 8.34749 20.5458 9.25991 19.7711 10.0267C18.9982 10.7934 18.2915 11.4162 18.2915 11.4162V11.4189C18.2915 11.4202 18.2902 11.4202 18.2902 11.4202V14.1698L16.1559 11.2573C16.1559 11.2573 15.9462 3.32945 19.9799 3.00324C19.9799 3.00324 21.822 1.14398 25.6093 0.922391V0.904293C25.7943 0.90032 25.9744 0.900321 26.1532 0.902969C26.3306 0.900321 26.5103 0.90032 26.6957 0.904293V0.922391C30.483 1.14398 32.3251 3.00324 32.3251 3.00324C36.3588 3.32945 36.1491 11.2573 36.1491 11.2573Z" fill="#CDD2FF"/>
<path d="M26.3972 26.3097L26.2493 26.3079C22.2541 25.968 20.1595 23.8854 19.1059 22.1983C17.9692 20.3779 17.7803 18.6489 17.7728 18.576L17.7701 18.5226L17.7688 11.1373L17.9608 11.0123C18.7351 10.3281 20.7832 8.40929 21.188 7.54897L21.3836 7.13403L21.8201 7.27485C24.7662 8.22522 27.8804 8.22522 30.8264 7.27485L31.263 7.13403L31.4581 7.54897C31.8783 8.44196 33.9596 10.3617 34.7263 11.026L34.9064 11.1823L34.8963 18.576C34.8888 18.6489 34.6999 20.3779 33.5632 22.1983C32.5095 23.8854 30.415 25.968 26.4197 26.3079L26.3972 26.3097ZM26.316 25.2666H26.3526C32.9695 24.6915 33.7972 18.9791 33.8554 18.4931L33.8625 11.6568C33.2582 11.1223 31.4956 9.52299 30.7439 8.39164C27.8424 9.24446 24.8024 9.24402 21.9005 8.3912C21.1567 9.50445 19.4069 11.1161 18.8114 11.6511L18.8128 18.4931C18.8706 18.9751 19.6965 24.691 26.316 25.2666Z" fill="#CDD2FF"/>
<path d="M18.2914 17.7987C16.7001 17.6901 16.5059 16.9424 16.5394 16.1046C16.5743 15.2363 16.2595 14.3354 15.7334 12.2775C15.2076 10.2196 18.0477 11.2807 18.0477 11.2807L18.2901 11.8815L18.2914 17.7987Z" fill="#CDD2FF"/>
<path d="M36.6369 12.2775C36.1121 14.3354 35.7973 15.2363 35.8322 16.1046C35.8635 16.8868 35.6967 17.5908 34.3844 17.7692L34.3914 11.4207C34.3914 11.4207 34.3596 11.3955 34.3022 11.3492L34.3296 11.2807C34.3296 11.2807 37.1609 10.2196 36.6369 12.2775Z" fill="#CDD2FF"/>
<path d="M30.5306 24.8579C30.5306 24.8579 28.5314 28.3345 23.4904 27.9002L22.3171 31.9418L20.3555 29.7214L21.926 24.5542C21.926 24.5542 26.6629 26.6395 30.5306 24.8579Z" fill="#CDD2FF"/>
</svg>
