<svg width="52" height="52" viewBox="0 0 52 52" fill="none" xmlns="http://www.w3.org/2000/svg">
<path d="M16.0884 35.921C15.5682 34.9098 15.2141 33.8078 15.0794 32.642C17.5731 32.0853 19.6946 31.7092 20.4451 31.5806C21.4352 30.5064 21.8435 27.7938 21.984 26.3527C18.6944 24.2272 18.309 20.4862 18.309 20.4862L18.3077 13.3997C18.3077 13.3997 18.309 13.3997 18.309 13.3984V13.3957C18.309 13.3957 22.3557 11.5226 25.998 7.75033L34.3728 13.2138L34.3582 20.4866C34.3582 20.4866 33.9535 24.4227 30.4261 26.5121C30.582 27.9924 30.9982 30.5641 31.9623 31.5929C31.979 31.6123 31.9962 31.6321 32.0156 31.6488C32.9132 31.792 34.5172 32.0677 36.238 32.4464C36.1212 33.684 35.7619 34.8547 35.2131 35.9219H40.1948C40.0477 35.0872 39.8966 34.2068 39.7446 33.2907C38.7858 27.5167 37.9006 22.3721 37.7442 16.4977C37.2589 -1.78626 28.3067 0.297406 25.2977 1.74641C23.9099 1.09458 14.6966 -2.07562 13.8158 14.2453C13.4762 20.5553 12.3262 27.1186 11.1164 33.6263C10.9684 34.4235 10.8231 35.189 10.6821 35.9219H16.0884V35.921Z" fill="#CDD2FF"/>
<path d="M52 51.1624L48.4061 40.6939C47.2249 37.2533 44.4348 34.6085 40.9356 33.6158C40.5401 33.5035 40.1419 33.3951 39.7451 33.2903C38.5352 32.9714 37.3333 32.6878 36.238 32.446C35.7539 37.5699 31.1973 41.5853 25.6483 41.5853C20.172 41.5853 15.6607 37.6712 15.0794 32.6424C13.8109 32.9247 12.4465 33.2564 11.1173 33.6259C11.0944 33.6321 11.0719 33.6387 11.049 33.6448C7.54894 34.6226 4.76631 37.2819 3.58596 40.719L0 51.1624H52Z" fill="#CDD2FF"/>
<path d="M22.1957 33.9184L15.9298 35.6184C15.4929 34.6922 15.2 33.6906 15.0789 32.642C17.5726 32.0853 19.6941 31.7092 20.4446 31.5806C20.4591 31.5651 20.4732 31.5493 20.4851 31.5339L20.6062 31.5753L22.1957 33.9184Z" fill="#CDD2FF"/>
<path d="M18.3094 19.7634C16.7217 19.6551 16.5279 18.909 16.5614 18.073C16.5962 17.2072 16.2821 16.3078 15.7572 14.2545C15.2326 12.2013 18.0663 13.26 18.0663 13.26L18.3081 13.8595L18.3094 19.7634Z" fill="#CDD2FF"/>
<path d="M36.6136 14.2545C36.0899 16.3078 35.7759 17.2067 35.8107 18.073C35.842 18.8535 35.6755 19.556 34.3661 19.7339L34.3732 13.3997C34.3732 13.3997 34.3414 13.3746 34.2842 13.3283L34.3115 13.26C34.3115 13.26 37.1364 12.2013 36.6136 14.2545Z" fill="#CDD2FF"/>
<path d="M26.3971 28.2553L26.2495 28.2535C22.2632 27.9144 20.1734 25.8365 19.1221 24.1532C17.988 22.3373 17.7995 20.6117 17.792 20.539L17.7894 20.4857L17.7876 13.1337L17.7889 13.1328V13.0434L18.1201 12.9108C18.1659 12.8927 22.7525 11.0667 25.3158 7.51115L25.6008 7.11609L34.8938 12.9258L34.8762 20.5395C34.8687 20.6121 34.6802 22.3373 33.5461 24.1536C32.4948 25.8369 30.405 27.9149 26.4187 28.254L26.3971 28.2553ZM26.3161 27.2146H26.3526C29.1978 26.9675 31.3211 25.7519 32.6635 23.6017C33.6047 22.0942 33.8139 20.6509 33.8381 20.4549L33.8518 13.501L25.8668 8.50916C23.4925 11.5442 19.9294 13.2614 18.8283 13.7419L18.8296 20.4567C18.8873 20.9372 19.7114 26.6403 26.3161 27.2146Z" fill="#CDD2FF"/>
<path d="M32.6811 31.7549L32.3878 31.2863C31.5668 30.4865 31.0907 28.106 30.9181 26.195C30.7622 26.3042 30.5979 26.4108 30.4266 26.5112C30.268 26.6063 30.1042 26.6958 29.9324 26.7803C29.9416 26.8614 29.9518 26.9459 29.9628 27.0327C27.0141 28.1003 23.7303 27.1573 22.4702 26.7085C22.4724 26.6874 22.4755 26.664 22.4777 26.6438C22.306 26.5513 22.1421 26.454 21.9849 26.3522C21.8131 26.2403 21.6493 26.1258 21.4934 26.006C21.3361 27.9457 20.8561 30.4588 20.0078 31.2846L19.7087 31.5757H20.3954L20.3703 31.6585L22.1782 33.928L23.4982 29.8413C27.1088 30.1527 29.155 28.4531 30.0227 27.4691C30.2129 28.7856 30.5838 30.5235 31.2898 31.5757L32.6811 31.7549Z" fill="#CDD2FF"/>
<path d="M22.1957 33.9183L15.9298 35.6184C15.4929 34.6921 15.2 33.6906 15.0789 32.6419C17.5726 32.0852 19.3285 31.6342 20.079 31.5056C20.0931 31.4902 20.4732 31.5492 20.4851 31.5334L20.6062 31.5748L22.1957 33.9183Z" fill="#CDD2FF"/>
</svg>
