<svg width="20" height="20" viewBox="0 0 20 20" fill="none" xmlns="http://www.w3.org/2000/svg">
<path d="M12.1834 6.95842C11.8334 7.19175 10.7251 7.82508 10.5584 7.95008C10.2334 8.20842 9.93344 8.19175 9.60845 7.94175C9.44178 7.80841 8.33345 7.17508 7.98345 6.95008C7.58345 6.69175 7.60845 6.36675 8.05011 6.18341C9.41678 5.60841 10.7834 5.65008 12.1418 6.20841C12.5501 6.38341 12.5668 6.70842 12.1834 6.95842ZM18.2001 13.0251C17.4251 11.2834 16.3668 9.70008 15.0001 8.30842C14.5776 7.86956 14.2736 7.33043 14.1168 6.74175C14.0334 6.46675 13.9751 6.18341 13.9168 5.90008C13.7501 5.16675 13.6751 4.41675 13.3334 3.72508C12.7251 2.40841 11.6668 1.72508 10.1334 1.66675C8.62511 1.70841 7.50011 2.34175 6.84178 3.66675C6.66678 4.02508 6.54178 4.40008 6.45845 4.78341C6.31678 5.41675 6.19178 6.07508 6.04178 6.71675C5.91678 7.25842 5.66678 7.72508 5.24178 8.14175C3.90011 9.45008 2.82511 10.9501 2.00845 12.6001C1.89178 12.8417 1.77511 13.0834 1.70011 13.3334C1.54178 13.8834 1.94178 14.2667 2.52511 14.1334C2.89178 14.0584 3.25845 13.9834 3.60845 13.8751C3.95011 13.7501 4.08345 13.8334 4.16678 14.1667C4.70845 15.9584 5.89178 17.2167 7.70011 17.9167C11.1334 19.2167 15.1418 17.3667 16.0084 14.1001C16.0668 13.8751 16.1501 13.7917 16.4001 13.8751C16.7834 13.9917 17.1751 14.0751 17.5668 14.1667C17.9751 14.2417 18.2751 14.0334 18.3334 13.6334C18.3584 13.4167 18.2834 13.2251 18.2001 13.0251Z" fill="white"/>
</svg>
