<svg width="20" height="20" viewBox="0 0 20 20" fill="none" xmlns="http://www.w3.org/2000/svg">
<path d="M8.18949 18.1359C4.45866 17.3093 1.66699 13.9809 1.66699 10.0001C1.66699 8.48175 2.07283 7.05842 2.78283 5.83175L6.35199 12.0143C6.75298 12.741 7.36195 13.3314 8.10077 13.7098C8.83959 14.0881 9.67459 14.2371 10.4987 14.1376L8.19033 18.1359H8.18949ZM10.0003 18.3334L13.5728 12.1459C13.9628 11.4982 14.1682 10.7562 14.167 10.0001C14.1683 9.09833 13.8758 8.2207 13.3337 7.50009H17.952C18.2059 8.30909 18.3346 9.15217 18.3337 10.0001C18.3337 14.6026 14.6028 18.3334 10.0003 18.3334ZM12.1437 11.2876C11.9197 11.6609 11.6022 11.9692 11.2225 12.182C10.8428 12.3949 10.414 12.5048 9.97877 12.5011C9.54349 12.4973 9.11675 12.3798 8.74079 12.1604C8.36484 11.941 8.05272 11.6272 7.83533 11.2501L7.81116 11.2084C7.60013 10.826 7.49298 10.395 7.50036 9.95829C7.50774 9.52158 7.62941 9.09443 7.85324 8.71937C8.07707 8.34431 8.39525 8.03444 8.7761 7.82062C9.15695 7.60679 9.58717 7.49648 10.0239 7.50066C10.4607 7.50483 10.8887 7.62336 11.2654 7.84444C11.6421 8.06551 11.9543 8.38142 12.1709 8.76069C12.3875 9.13996 12.501 9.56936 12.5 10.0061C12.499 10.4429 12.3836 10.8718 12.1653 11.2501L12.1437 11.2876ZM3.86033 4.36592C4.64011 3.51416 5.58882 2.83424 6.64598 2.36951C7.70313 1.90478 8.84553 1.66544 10.0003 1.66675C11.4634 1.66616 12.9009 2.05095 14.1681 2.7824C15.4352 3.51385 16.4874 4.56615 17.2187 5.83342H10.0003C9.18411 5.83324 8.38581 6.07275 7.7045 6.52222C7.02319 6.97169 6.48886 7.61133 6.16783 8.36175L3.86033 4.36592Z" fill="white"/>
</svg>
