<svg width="517" height="410" viewBox="0 0 517 410" fill="none" xmlns="http://www.w3.org/2000/svg">
<path d="M267.366 188.597L267.726 188.944L267.366 188.597ZM383.293 68.0139L382.933 67.6674L383.293 68.0139ZM384.014 68.707L384.374 69.0535L384.014 68.707ZM265.447 196.788L265.806 196.44L265.447 196.788ZM395.011 330.293L395.369 329.945L395.011 330.293ZM394.293 330.989L394.652 330.641L394.293 330.989ZM264.598 197.35L264.24 197.698L264.598 197.35ZM259.5 199.417H260H259.5ZM259.5 408.5H260H259.5ZM258.5 408.5H258H258.5ZM248.175 210.002L247.814 209.655L248.175 210.002ZM258.5 214.16H258H258.5ZM135.707 326.986L135.347 326.64L135.707 326.986ZM134.986 326.293L135.347 326.64L134.986 326.293ZM256.825 199.561L257.186 199.907L256.825 199.561ZM247.587 179.821L247.229 180.17L247.587 179.821ZM131.989 60.707L132.348 60.3588L131.989 60.707ZM132.707 60.0106L132.348 60.3588L132.707 60.0106ZM248.194 179.011L247.835 179.359L248.194 179.011ZM259 1.5V185.429H260V1.5H259ZM259 174.832V1.5H258V174.832H259ZM132.348 60.3588L247.835 179.359L248.553 178.663L133.066 59.6624L132.348 60.3588ZM247.946 179.473L132.348 60.3588L131.631 61.0552L247.229 180.17L247.946 179.473ZM1.5 190.5H243.282V189.5H1.5V190.5ZM258.389 190.5H1.5V191.5H258.389V190.5ZM259 195.402V191.111H258V195.402H259ZM135.347 326.64L257.186 199.907L256.465 199.214L134.626 325.947L135.347 326.64ZM247.814 209.655L135.347 326.64L136.067 327.333L248.535 210.348L247.814 209.655ZM259 408.5L259 214.16H258L258 408.5H259ZM259 199.417L259 408.5H260L260 199.417H259ZM394.652 330.641L264.957 197.001L264.24 197.698L393.934 331.338L394.652 330.641ZM265.088 197.136L394.652 330.641L395.369 329.945L265.806 196.44L265.088 197.136ZM515.5 190.5H267.895V191.5H515.5V190.5ZM281.495 190.5H515.5V189.5H281.495V190.5ZM383.653 68.3604L276.81 179.495L277.531 180.188L384.374 69.0535L383.653 68.3604ZM267.726 188.944L383.653 68.3604L382.933 67.6674L267.005 188.251L267.726 188.944ZM260 194.429C260 194.029 260.487 193.831 260.766 194.119L261.484 193.422C260.579 192.49 259 193.131 259 194.429H260ZM261.488 195.432C262.028 194.87 262.026 193.982 261.484 193.422L260.766 194.119C260.934 194.291 260.934 194.565 260.768 194.739L261.488 195.432ZM260.768 194.739C260.489 195.028 260 194.831 260 194.429H259C259 195.732 260.586 196.37 261.488 195.432L260.768 194.739ZM263.611 193.224C264.594 192.202 263.869 190.5 262.451 190.5V191.5C262.988 191.5 263.262 192.144 262.89 192.531L263.611 193.224ZM261.296 193.229C261.931 193.883 262.98 193.88 263.611 193.224L262.89 192.531C262.651 192.779 262.254 192.78 262.014 192.533L261.296 193.229ZM262.014 192.533C261.639 192.147 261.913 191.5 262.451 191.5V190.5C261.029 190.5 260.306 192.209 261.296 193.229L262.014 192.533ZM267.005 188.251C266.238 189.049 265.178 189.5 264.071 189.5V190.5C265.45 190.5 266.77 189.938 267.726 188.944L267.005 188.251ZM384.347 67.6396C383.948 67.2568 383.315 67.2692 382.933 67.6674L383.653 68.3604L384.347 67.6396ZM384.374 69.0535C384.757 68.6554 384.745 68.0223 384.347 67.6396L383.653 68.3604L384.374 69.0535ZM281.495 189.5C276.647 189.5 274.171 183.683 277.531 180.188L276.81 179.495C272.839 183.625 275.766 190.5 281.495 190.5V189.5ZM516.5 190.5C516.5 189.948 516.052 189.5 515.5 189.5V190.5H516.5ZM515.5 191.5C516.052 191.5 516.5 191.052 516.5 190.5H515.5V191.5ZM265.796 192.394C266.345 191.823 267.103 191.5 267.895 191.5V190.5C266.831 190.5 265.813 190.934 265.075 191.701L265.796 192.394ZM265.806 196.44C264.713 195.314 264.709 193.525 265.796 192.394L265.075 191.701C263.615 193.22 263.62 195.624 265.088 197.136L265.806 196.44ZM395.348 331.359C395.745 330.974 395.754 330.341 395.369 329.945L394.652 330.641L395.348 331.359ZM393.934 331.338C394.319 331.734 394.952 331.743 395.348 331.359L394.652 330.641L393.934 331.338ZM260.689 197.706C261.657 196.699 263.267 196.696 264.24 197.698L264.957 197.001C263.59 195.593 261.328 195.598 259.968 197.013L260.689 197.706ZM260 199.417C260 198.779 260.247 198.166 260.689 197.706L259.968 197.013C259.347 197.659 259 198.521 259 199.417H260ZM259 409.5C259.552 409.5 260 409.052 260 408.5H259V409.5ZM258 408.5C258 409.052 258.448 409.5 259 409.5V408.5H258ZM248.535 210.348C251.967 206.778 258 209.208 258 214.16H259C259 208.307 251.871 205.436 247.814 209.655L248.535 210.348ZM134.653 327.36C135.052 327.743 135.685 327.731 136.067 327.333L135.347 326.64L134.653 327.36ZM134.626 325.947C134.243 326.345 134.255 326.978 134.653 327.36L135.347 326.64L134.626 325.947ZM258 195.402C258 196.824 257.45 198.19 256.465 199.214L257.186 199.907C258.35 198.696 259 197.082 259 195.402H258ZM258.11 191.382C258.039 191.309 258 191.212 258 191.111H259C259 190.952 258.938 190.799 258.828 190.685L258.11 191.382ZM258.389 191.5C258.284 191.5 258.183 191.457 258.11 191.382L258.828 190.685C258.713 190.567 258.554 190.5 258.389 190.5V191.5ZM0.5 190.5C0.5 191.052 0.947708 191.5 1.5 191.5V190.5H1.5H0.5ZM1.5 189.5C0.947715 189.5 0.5 189.948 0.5 190.5H1.5V189.5ZM247.229 180.17C250.614 183.657 248.142 189.5 243.282 189.5V190.5C249.026 190.5 251.947 183.595 247.946 179.473L247.229 180.17ZM131.652 59.6412C131.255 60.0258 131.246 60.6589 131.631 61.0552L132.348 60.3588L131.652 59.6412ZM133.066 59.6624C132.681 59.266 132.048 59.2566 131.652 59.6412L132.348 60.3588L133.066 59.6624ZM258 174.832C258 179.772 251.993 182.207 248.553 178.663L247.835 179.359C251.901 183.548 259 180.67 259 174.832H258ZM259 0.5C258.448 0.5 258 0.947709 258 1.5H259V1.5V0.5ZM259 185.429C259 188.23 261.27 190.5 264.071 190.5V189.5C261.823 189.5 260 187.677 260 185.429H259ZM260 1.5C260 0.947715 259.552 0.5 259 0.5V1.5V1.5H260Z" fill="url(#paint0_linear_4044_41)"/>
<defs>
<linearGradient id="paint0_linear_4044_41" x1="259.286" y1="-49.1053" x2="259.286" y2="339.807" gradientUnits="userSpaceOnUse">
<stop stop-color="white"/>
<stop offset="1" stop-color="#B1B5FF"/>
</linearGradient>
</defs>
</svg>
